<svg width="32" height="32" viewBox="0 0 32 32" fill="none" xmlns="http://www.w3.org/2000/svg">
  <defs>
    <linearGradient id="fluxGradient" x1="0%" y1="0%" x2="100%" y2="100%">
      <stop offset="0%" style="stop-color:#7c3aed;stop-opacity:1" />
      <stop offset="50%" style="stop-color:#a855f7;stop-opacity:1" />
      <stop offset="100%" style="stop-color:#10b981;stop-opacity:1" />
    </linearGradient>
    <linearGradient id="loveGradient" x1="0%" y1="0%" x2="100%" y2="100%">
      <stop offset="0%" style="stop-color:#f59e0b;stop-opacity:1" />
      <stop offset="50%" style="stop-color:#ec4899;stop-opacity:1" />
      <stop offset="100%" style="stop-color:#6366f1;stop-opacity:1" />
    </linearGradient>
  </defs>
  
  <!-- Background circle -->
  <circle cx="16" cy="16" r="15" fill="url(#fluxGradient)" opacity="0.1"/>
  
  <!-- Flux symbol (stylized F) -->
  <path d="M8 6 L8 26 L12 26 L12 18 L20 18 L20 14 L12 14 L12 10 L22 10 L22 6 Z" 
        fill="url(#fluxGradient)" 
        opacity="0.9"/>
  
  <!-- Love symbol (stylized heart/L) -->
  <path d="M24 8 C24 6 22 4 20 4 C18 4 16 6 16 8 L16 24 L20 24 L20 12 L24 12 Z" 
        fill="url(#loveGradient)" 
        opacity="0.8"/>
  
  <!-- Connecting dots for flux motion -->
  <circle cx="6" cy="8" r="1" fill="#7c3aed" opacity="0.6">
    <animate attributeName="opacity" values="0.3;0.9;0.3" dur="2s" repeatCount="indefinite"/>
  </circle>
  <circle cx="26" cy="24" r="1" fill="#10b981" opacity="0.6">
    <animate attributeName="opacity" values="0.9;0.3;0.9" dur="2s" repeatCount="indefinite"/>
  </circle>
</svg>
